<?xml version="1.0" standalone="no"?>
<!DOCTYPE svg PUBLIC "-//W3C//DTD SVG 20010904//EN"
 "http://www.w3.org/TR/2001/REC-SVG-20010904/DTD/svg10.dtd">
<svg version="1.0" xmlns="http://www.w3.org/2000/svg"
 width="300.000000pt" height="355.000000pt" viewBox="0 0 300.000000 355.000000"
 preserveAspectRatio="xMidYMid meet">
<metadata>
Created by potrace 1.16, written by Peter Selinger 2001-2019
</metadata>
<g transform="translate(0.000000,355.000000) scale(0.100000,-0.100000)"
fill="#000000" stroke="none">
<path d="M1075 3514 c-83 -13 -199 -36 -213 -43 -10 -5 -53 -19 -97 -32 -81
-23 -93 -28 -220 -92 -136 -68 -290 -202 -373 -324 -23 -34 -42 -64 -42 -67 0
-2 -16 -39 -36 -81 -19 -41 -37 -86 -38 -98 -2 -12 -7 -31 -12 -42 -14 -32
-11 -389 3 -407 7 -8 10 -17 7 -21 -9 -8 13 -72 53 -154 19 -40 33 -74 31 -75
-1 -2 24 -39 56 -83 140 -192 323 -341 631 -515 72 -40 156 -88 188 -107 32
-18 60 -33 63 -33 8 0 274 -150 369 -208 142 -87 306 -214 385 -299 74 -80
173 -217 173 -240 0 -19 21 -16 39 4 21 25 90 153 82 153 -4 0 -2 6 4 13 40
50 41 339 1 381 -5 6 -9 17 -9 25 -1 49 -129 247 -221 341 -111 113 -325 263
-544 380 -325 174 -518 293 -632 388 -76 65 -169 179 -203 249 -73 155 -66
322 21 508 35 76 166 200 264 251 98 51 215 92 315 110 102 18 338 18 437 -1
94 -18 219 -68 297 -119 71 -48 174 -159 205 -222 13 -27 30 -61 37 -75 8 -14
11 -29 7 -32 -3 -4 0 -14 7 -22 19 -23 27 -279 10 -299 -6 -9 -9 -20 -5 -26 4
-6 2 -16 -3 -23 -6 -7 -16 -32 -24 -57 -39 -129 -172 -274 -312 -341 -83 -40
-250 -81 -288 -71 -15 3 -19 1 -16 -9 2 -8 49 -36 104 -64 237 -119 382 -222
529 -376 103 -107 207 -265 221 -334 1 -5 8 -23 15 -40 15 -36 14 -33 23 -70
4 -16 10 -37 13 -45 4 -8 5 -19 4 -24 -1 -5 1 -16 4 -25 18 -44 -3 -355 -26
-386 -4 -5 -14 -33 -22 -62 -41 -138 -198 -326 -343 -411 -63 -36 -177 -81
-254 -100 -14 -3 -213 -7 -442 -9 l-418 -3 0 520 c0 432 -2 520 -14 520 -21 0
-297 130 -391 183 -11 7 -45 27 -76 45 -31 17 -60 32 -65 32 -5 0 -8 -208 -7
-477 1 -310 -2 -481 -8 -489 -6 -7 -9 -18 -8 -26 1 -7 0 -20 -3 -28 -4 -8 -12
-37 -19 -65 -30 -119 -126 -227 -221 -250 -24 -6 -28 -12 -28 -41 l0 -34 918
1 c898 0 967 2 1125 33 344 67 608 225 752 451 37 58 93 173 99 205 1 3 4 10
8 15 20 33 29 147 26 345 -3 236 2 211 -81 380 -42 85 -133 197 -210 258 -102
80 -235 158 -312 182 -22 7 -44 16 -50 20 -23 18 -279 79 -334 81 -14 0 12 11
59 25 108 32 255 101 334 158 70 50 177 159 224 228 97 143 120 327 61 505
-57 173 -252 353 -499 461 -40 18 -78 31 -231 77 -120 37 -232 47 -529 50
-162 2 -308 1 -325 -1z"/>
</g>
</svg>
